<svg xmlns="http://www.w3.org/2000/svg" xmlns:xlink="http://www.w3.org/1999/xlink" width="500" zoomAndPan="magnify" viewBox="0 0 375 374.999991" height="500" preserveAspectRatio="xMidYMid meet" version="1.0"><defs><clipPath id="2591021c89"><path d="M 83.433594 57.417969 L 291.933594 57.417969 L 291.933594 317.667969 L 83.433594 317.667969 Z M 83.433594 57.417969 " clip-rule="nonzero"/></clipPath></defs><g clip-path="url(#2591021c89)"><path fill="#ff5757" d="M 189.054688 57.417969 C 189.054688 57.417969 167.722656 103.203125 147.429688 117.773438 L 146.910156 117.773438 C 109.96875 133.382812 83.433594 170.324219 83.433594 213.511719 C 83.433594 271.265625 129.742188 317.574219 187.496094 317.574219 C 244.730469 317.574219 291.558594 271.265625 291.558594 213.511719 C 291.558594 171.886719 267.101562 135.984375 231.722656 119.332031 C 231.722656 119.332031 229.640625 85.511719 194.78125 61.058594 C 210.390625 73.546875 213.511719 99.042969 211.429688 115.691406 L 211.429688 117.253906 L 210.910156 117.253906 L 210.910156 120.375 L 210.390625 120.375 L 210.390625 122.457031 L 209.867188 122.457031 L 209.867188 124.535156 L 209.347656 124.535156 L 209.347656 126.097656 C 207.789062 130.261719 205.1875 135.984375 202.585938 141.707031 C 195.820312 157.316406 187.496094 173.445312 190.097656 189.054688 C 192.179688 204.144531 211.429688 204.144531 219.753906 195.820312 C 228.078125 187.496094 220.273438 160.957031 219.234375 153.675781 C 218.714844 144.828125 224.4375 138.066406 232.761719 134.941406 C 230.679688 142.746094 237.964844 156.796875 244.210938 167.203125 C 254.617188 184.371094 260.859375 191.65625 260.859375 213.511719 C 260.859375 254.09375 228.078125 286.875 187.496094 286.875 C 146.910156 286.875 114.132812 254.09375 114.132812 213.511719 C 114.132812 201.542969 116.734375 190.617188 121.9375 180.730469 C 144.308594 138.066406 196.859375 108.925781 189.054688 57.417969 Z M 228.078125 227.039062 C 200.503906 240.566406 164.601562 227.558594 159.398438 193.738281 C 158.878906 188.535156 158.878906 184.371094 158.878906 179.691406 C 156.796875 182.8125 154.195312 185.933594 152.113281 189.574219 C 151.074219 191.136719 150.03125 193.21875 148.992188 194.777344 C 146.390625 201.023438 144.828125 207.265625 144.828125 213.511719 C 144.828125 237.445312 164.082031 256.175781 187.496094 256.175781 C 206.226562 256.175781 222.355469 244.207031 228.078125 227.039062 Z M 228.078125 227.039062 " fill-opacity="1" fill-rule="nonzero"/></g></svg>
